# xmcd
#
# Track frame offsets:
#	182
#	12572
#	25720
#	40897
#	52300
#	63280
#	75665
#	88805
#	102055
#	114257
#	127862
#	142220
#	156012
#	168920
#	182610
#	196825
#	209122
#	222420
#
# Disc length: 3126 seconds
#
# Revision: 1
# Processed by: cddbd v1.5PL3 Copyright (c) Steve Scherf et al.
# Submitted via: audiograbber 1.80
#
DISCID=fb0c3412
DTITLE=Bienvenido Granda - Com La Sonora Matancera vol. 2
DYEAR=1900
DGENRE=
TTITLE0=Percal
TTITLE1=Dios Me Señalo
TTITLE2=Quisiera Que El Mundo Acabasse
TTITLE3=Te Miro En La Copa
TTITLE4=Se
TTITLE5=Payaso
TTITLE6=Las Muchachitas Del Cha Cha Cha
TTITLE7=Calla
TTITLE8=Micaela
TTITLE9=Hoy Se Mas
TTITLE10=Oyeme Nama
TTITLE11=Sere Tu Amigo
TTITLE12=Todo El Mundo Escucha
TTITLE13=Recordandote
TTITLE14=Renace El Amor
TTITLE15=Guajiriando
TTITLE16=Ritmo De Mi Cuba
TTITLE17=Noble Soy
EXTD=
EXTT0=
EXTT1=
EXTT2=
EXTT3=
EXTT4=
EXTT5=
EXTT6=
EXTT7=
EXTT8=
EXTT9=
EXTT10=
EXTT11=
EXTT12=
EXTT13=
EXTT14=
EXTT15=
EXTT16=
EXTT17=
PLAYORDER=
